<svg width="56" height="62" viewBox="0 0 56 62" fill="none" xmlns="http://www.w3.org/2000/svg">
<path d="M55.4696 51.1094L46.2211 35.0878C46.3698 34.8841 46.4487 34.6291 46.4303 34.3612L45.9514 27.6009L50.3114 22.4152C50.6564 22.006 50.6564 21.4077 50.3114 20.9985L45.9514 15.8128L46.4303 9.05072C46.4689 8.51673 46.1165 8.03228 45.5972 7.90383L39.0187 6.27433L35.4385 0.519707C35.156 0.0646221 34.5853 -0.120715 34.0898 0.0811374L27.8085 2.63549L21.5291 0.0829728C21.0318 -0.118879 20.4629 0.0664575 20.1804 0.521543L16.6002 6.27617L10.0217 7.90567C9.50237 8.03412 9.15005 8.51856 9.18858 9.05255L9.66752 15.8128L5.30751 20.9967C4.96253 21.4059 4.96253 22.0041 5.30751 22.4133L9.66752 27.5991L9.18858 34.3593C9.17023 34.6272 9.24914 34.8823 9.39777 35.086L0.147436 51.1094C-0.0746012 51.4947 -0.0434062 51.9737 0.224507 52.3278C0.494255 52.6802 0.947505 52.838 1.37873 52.726L11.5796 50.0689L14.378 60.2331C14.4955 60.6607 14.8588 60.9763 15.2992 61.0332C15.3469 61.0387 15.3928 61.0424 15.4387 61.0424C15.8277 61.0424 16.1929 60.835 16.391 60.4918L27.7627 40.7966L27.8067 40.7782L27.8507 40.7966L39.2224 60.4918C39.4205 60.835 39.7857 61.0424 40.1747 61.0424C40.2206 61.0424 40.2683 61.0387 40.3142 61.0332C40.7546 60.9763 41.1179 60.6607 41.2354 60.2331L44.0356 50.0689L54.2383 52.7242C54.6677 52.8361 55.1228 52.6783 55.3926 52.326C55.6605 51.9737 55.6917 51.4929 55.4696 51.1094ZM15.802 57.1081L13.4146 48.4358C13.255 47.8559 12.6586 47.5109 12.0751 47.6632L3.36973 49.9295L11.4879 35.8695L16.6002 37.1357L20.1804 42.8903C20.3859 43.2225 20.7437 43.4096 21.1162 43.4096C21.2557 43.4096 21.3951 43.3839 21.5309 43.3289L24.4449 42.1453L15.802 57.1081ZM28.9976 38.8826L28.2232 38.567C27.9572 38.4588 27.6599 38.4588 27.3938 38.567L26.5607 38.9065L21.5603 40.9397L18.2352 35.5925C18.0829 35.3484 17.8425 35.1741 17.5654 35.1043L11.453 33.5904L11.8989 27.3092C11.9191 27.0247 11.8273 26.7422 11.6438 26.5219L7.59211 21.7032L11.6438 16.8844C11.8273 16.6661 11.9191 16.3835 11.8989 16.0972L11.453 9.81592L17.5654 8.30203C17.8444 8.2323 18.0848 8.05797 18.2352 7.81391L21.5603 2.46666L27.3957 4.83935C27.6617 4.94761 27.959 4.94761 28.2251 4.83935L34.0604 2.46666L37.3855 7.81391C37.5378 8.05797 37.7782 8.2323 38.0553 8.30203L44.1677 9.81592L43.7218 16.0954C43.7016 16.3798 43.7934 16.6624 43.9769 16.8826L48.0286 21.7013L43.9769 26.5201C43.7934 26.7385 43.7016 27.0211 43.7218 27.3073L44.1677 33.5886L38.0553 35.1025C37.7764 35.1722 37.536 35.3466 37.3855 35.5906L34.0604 40.9379L29.0233 38.89C29.0123 38.8881 29.005 38.8845 28.9976 38.8826ZM43.5438 47.6632C42.9621 47.5109 42.3657 47.8559 42.2043 48.4358L39.8151 57.1081L31.1758 42.1435L34.0898 43.3271C34.5871 43.5289 35.156 43.3436 35.4385 42.8885L39.0187 37.1339L44.131 35.8677L52.2473 49.9276L43.5438 47.6632Z" fill="#333333"/>
<path d="M41.3922 21.7049C41.3922 14.2162 35.2999 8.12207 27.8094 8.12207C20.3188 8.12207 14.2266 14.2143 14.2266 21.7049C14.2266 29.1954 20.3188 35.2877 27.8094 35.2877C35.2999 35.2877 41.3922 29.1954 41.3922 21.7049ZM27.8094 33.0857C21.5336 33.0857 16.4286 27.9807 16.4286 21.7049C16.4286 15.4291 21.5336 10.3241 27.8094 10.3241C34.0852 10.3241 39.1902 15.4291 39.1902 21.7049C39.1902 27.9807 34.0852 33.0857 27.8094 33.0857Z" fill="#333333"/>
<path d="M29.0294 15.6252C28.6184 15.4545 28.1449 15.5481 27.8293 15.8637L24.6345 19.0585C24.2052 19.4879 24.2052 20.1852 24.6345 20.6164C25.0639 21.0458 25.7612 21.0458 26.1925 20.6164L27.5082 19.3007V26.7674C27.5082 27.3748 28.0018 27.8684 28.6092 27.8684C29.2166 27.8684 29.7102 27.3748 29.7102 26.7674V16.6418C29.7084 16.1977 29.4405 15.7958 29.0294 15.6252Z" fill="#C71F16"/>
<path d="M19.3766 20.7246H19.3198C18.7124 20.7246 18.2188 21.2182 18.2188 21.8256C18.2188 22.433 18.7124 22.9266 19.3198 22.9266H19.3766C19.984 22.9266 20.4777 22.433 20.4777 21.8256C20.4777 21.2182 19.984 20.7246 19.3766 20.7246Z" fill="#C71F16"/>
<path d="M36.2985 20.4844H36.2416C35.6342 20.4844 35.1406 20.978 35.1406 21.5854C35.1406 22.1928 35.6342 22.6864 36.2416 22.6864H36.2985C36.9059 22.6864 37.3995 22.1928 37.3995 21.5854C37.3995 20.978 36.9059 20.4844 36.2985 20.4844Z" fill="#C71F16"/>
</svg>
